<?xml version="1.0" encoding="utf-8" standalone="no"?>
<!DOCTYPE svg PUBLIC "-//W3C//DTD SVG 1.1//EN"
  "http://www.w3.org/Graphics/SVG/1.1/DTD/svg11.dtd">
<svg xmlns:xlink="http://www.w3.org/1999/xlink" width="705.086704pt" height="707.661945pt" viewBox="0 0 705.086704 707.661945" xmlns="http://www.w3.org/2000/svg" version="1.1">
 <metadata>
  <rdf:RDF xmlns:dc="http://purl.org/dc/elements/1.1/" xmlns:cc="http://creativecommons.org/ns#" xmlns:rdf="http://www.w3.org/1999/02/22-rdf-syntax-ns#">
   <cc:Work>
    <dc:type rdf:resource="http://purl.org/dc/dcmitype/StillImage"/>
    <dc:date>2026-03-04T21:25:53.033345</dc:date>
    <dc:format>image/svg+xml</dc:format>
    <dc:creator>
     <cc:Agent>
      <dc:title>Matplotlib v3.10.7, https://matplotlib.org/</dc:title>
     </cc:Agent>
    </dc:creator>
   </cc:Work>
  </rdf:RDF>
 </metadata>
 <defs>
  <style type="text/css">*{stroke-linejoin: round; stroke-linecap: butt}</style>
 </defs>
 <g id="figure_1">
  <g id="patch_1">
   <path d="M 0 707.661945 
L 705.086704 707.661945 
L 705.086704 0 
L 0 0 
z
" style="fill: #ffffff"/>
  </g>
  <g id="axes_1">
   <g id="patch_2">
    <path d="M 600.069829 288.832089 
C 600.069829 256.206633 593.643325 223.898419 581.158104 193.756429 
C 568.672883 163.614438 550.37175 136.224857 527.302069 113.155176 
C 504.232388 90.085495 476.842807 71.784362 446.700816 59.299141 
C 416.558826 46.813919 384.250612 40.387416 351.625156 40.387416 
C 318.999701 40.387416 286.691487 46.813919 256.549496 59.299141 
C 226.407506 71.784362 199.017924 90.085495 175.948244 113.155176 
C 152.878563 136.224857 134.57743 163.614438 122.092208 193.756429 
C 109.606987 223.898419 103.180484 256.206633 103.180484 288.832089 
C 103.180484 321.457544 109.606987 353.765758 122.092208 383.907749 
C 134.57743 414.049739 152.878563 441.43932 175.948244 464.509001 
C 199.017924 487.578682 226.407506 505.879815 256.549496 518.365036 
C 286.691487 530.850258 318.999701 537.276761 351.625156 537.276761 
C 384.250612 537.276761 416.558826 530.850258 446.700816 518.365036 
C 476.842807 505.879815 504.232388 487.578682 527.302069 464.509001 
C 550.37175 441.43932 568.672883 414.049739 581.158104 383.907749 
C 593.643325 353.765758 600.069829 321.457544 600.069829 288.832089 
M 351.625156 288.832089 
C 351.625156 288.832089 351.625156 288.832089 351.625156 288.832089 
C 351.625156 288.832089 351.625156 288.832089 351.625156 288.832089 
C 351.625156 288.832089 351.625156 288.832089 351.625156 288.832089 
C 351.625156 288.832089 351.625156 288.832089 351.625156 288.832089 
C 351.625156 288.832089 351.625156 288.832089 351.625156 288.832089 
C 351.625156 288.832089 351.625156 288.832089 351.625156 288.832089 
C 351.625156 288.832089 351.625156 288.832089 351.625156 288.832089 
C 351.625156 288.832089 351.625156 288.832089 351.625156 288.832089 
C 351.625156 288.832089 351.625156 288.832089 351.625156 288.832089 
C 351.625156 288.832089 351.625156 288.832089 351.625156 288.832089 
C 351.625156 288.832089 351.625156 288.832089 351.625156 288.832089 
C 351.625156 288.832089 351.625156 288.832089 351.625156 288.832089 
C 351.625156 288.832089 351.625156 288.832089 351.625156 288.832089 
C 351.625156 288.832089 351.625156 288.832089 351.625156 288.832089 
C 351.625156 288.832089 351.625156 288.832089 351.625156 288.832089 
C 351.625156 288.832089 351.625156 288.832089 351.625156 288.832089 
z
" style="fill: #f5f5f5"/>
   </g>
   <g id="patch_3">
    <path d="M 478.331939 288.832089 
L 420.081639 78.144697 
L 226.00268 197.562017 
L 204.228117 395.922306 
L 406.262387 456.988193 
z
" clip-path="url(#pcb4a3c9699)" style="fill: #1f77b4; opacity: 0.05; stroke: #1f77b4; stroke-linejoin: miter"/>
   </g>
   <g id="patch_4">
    <path d="M 540.857182 288.832089 
L 422.896672 69.480917 
L 197.193259 176.630747 
L 184.463514 410.28213 
L 414.195661 481.404302 
z
" clip-path="url(#pcb4a3c9699)" style="fill: #ff7f0e; opacity: 0.05; stroke: #ff7f0e; stroke-linejoin: miter"/>
   </g>
   <g id="patch_5">
    <path d="M 468.808227 288.832089 
L 417.522519 86.020862 
L 289.651401 243.80552 
L 228.347633 378.398452 
L 393.21087 416.819756 
z
" clip-path="url(#pcb4a3c9699)" style="fill: #2ca02c; opacity: 0.05; stroke: #2ca02c; stroke-linejoin: miter"/>
   </g>
   <g id="patch_6">
    <path d="M 494.066768 288.832089 
L 417.522519 86.020862 
L 291.661361 245.265841 
L 223.657727 381.805868 
L 387.06898 397.916962 
z
" clip-path="url(#pcb4a3c9699)" style="fill: #d62728; opacity: 0.05; stroke: #d62728; stroke-linejoin: miter"/>
   </g>
   <g id="patch_7">
    <path d="M 477.917865 288.832089 
L 416.242958 89.958944 
L 269.551805 229.202308 
L 293.001334 331.424789 
L 401.528013 442.41729 
z
" clip-path="url(#pcb4a3c9699)" style="fill: #9467bd; opacity: 0.05; stroke: #9467bd; stroke-linejoin: miter"/>
   </g>
   <g id="patch_8">
    <path d="M 499.863811 288.832089 
L 418.546167 82.870396 
L 260.171993 222.387476 
L 210.257996 391.541342 
L 399.224804 435.328742 
z
" clip-path="url(#pcb4a3c9699)" style="fill: #8c564b; opacity: 0.05; stroke: #8c564b; stroke-linejoin: miter"/>
   </g>
   <g id="patch_9">
    <path d="M 462.59711 288.832089 
L 419.825727 78.932314 
L 269.551805 229.202308 
L 212.267956 390.081021 
L 397.561376 430.209235 
z
" clip-path="url(#pcb4a3c9699)" style="fill: #e377c2; opacity: 0.05; stroke: #e377c2; stroke-linejoin: miter"/>
   </g>
   <g id="patch_10">
    <path d="M 530.091246 288.832089 
L 420.081639 78.144697 
L 237.057458 205.593783 
L 201.548171 397.869401 
L 411.252672 472.346713 
z
" clip-path="url(#pcb4a3c9699)" style="fill: #7f7f7f; opacity: 0.05; stroke: #7f7f7f; stroke-linejoin: miter"/>
   </g>
   <g id="patch_11">
    <path d="M 585.163148 288.832089 
L 418.802079 82.082779 
L 203.223138 181.011711 
L 211.262976 390.811182 
L 406.902167 458.957234 
z
" clip-path="url(#pcb4a3c9699)" style="fill: #bcbd22; opacity: 0.05; stroke: #bcbd22; stroke-linejoin: miter"/>
   </g>
   <g id="patch_12">
    <path d="M 585.577223 288.832089 
L 422.64076 70.268533 
L 191.833366 172.736558 
L 194.513313 402.980525 
L 414.707486 482.979535 
z
" clip-path="url(#pcb4a3c9699)" style="fill: #17becf; opacity: 0.05; stroke: #17becf; stroke-linejoin: miter"/>
   </g>
   <g id="patch_13">
    <path d="M 620.773551 288.832089 
C 620.773551 217.476873 592.397569 148.97119 541.941812 98.515433 
C 491.486055 48.059676 422.980372 19.683693 351.625156 19.683693 
C 280.26994 19.683693 211.764258 48.059676 161.308501 98.515433 
C 110.852744 148.97119 82.476761 217.476873 82.476761 288.832089 
L 61.773038 288.832089 
C 61.773038 211.98801 92.331789 138.21266 146.668758 83.87569 
C 201.005727 29.538721 274.781078 -1.020029 351.625156 -1.020029 
C 428.469235 -1.020029 502.244585 29.538721 556.581554 83.87569 
C 610.918523 138.21266 641.477274 211.98801 641.477274 288.832089 
z
" clip-path="url(#pcb4a3c9699)" style="fill: #f4d03f; opacity: 0.8"/>
   </g>
   <g id="patch_14">
    <path d="M 82.476761 288.832089 
C 82.476761 360.187304 110.852744 428.692987 161.308501 479.148744 
C 211.764258 529.604501 280.26994 557.980484 351.625156 557.980484 
C 422.980372 557.980484 491.486055 529.604501 541.941812 479.148744 
C 592.397569 428.692987 620.773551 360.187304 620.773551 288.832089 
L 641.477274 288.832089 
C 641.477274 365.676167 610.918523 439.451518 556.581554 493.788487 
C 502.244585 548.125456 428.469235 578.684206 351.625156 578.684206 
C 274.781078 578.684206 201.005727 548.125456 146.668758 493.788487 
C 92.331789 439.451518 61.773038 365.676167 61.773038 288.832089 
z
" clip-path="url(#pcb4a3c9699)" style="fill: #3498db; opacity: 0.8"/>
   </g>
   <g id="matplotlib.axis_1">
    <g id="xtick_1">
     <g id="line2d_1">
      <path d="M 351.625156 288.832089 
L 600.069829 288.832089 
" clip-path="url(#pcb4a3c9699)" style="fill: none; stroke: #808080; stroke-opacity: 0.3; stroke-width: 0.8; stroke-linecap: square"/>
     </g>
     <g id="text_1">
      <!-- Discrimination -->
      <g transform="translate(583.252954 292.695214) scale(0.14 -0.14)">
       <defs>
        <path id="DejaVuSans-Bold-44" d="M 1791 3756 
L 1791 909 
L 2222 909 
Q 2959 909 3348 1275 
Q 3738 1641 3738 2338 
Q 3738 3031 3350 3393 
Q 2963 3756 2222 3756 
L 1791 3756 
z
M 588 4666 
L 1856 4666 
Q 2919 4666 3439 4514 
Q 3959 4363 4331 4000 
Q 4659 3684 4818 3271 
Q 4978 2859 4978 2338 
Q 4978 1809 4818 1395 
Q 4659 981 4331 666 
Q 3956 303 3431 151 
Q 2906 0 1856 0 
L 588 0 
L 588 4666 
z
" transform="scale(0.015625)"/>
        <path id="DejaVuSans-Bold-69" d="M 538 3500 
L 1656 3500 
L 1656 0 
L 538 0 
L 538 3500 
z
M 538 4863 
L 1656 4863 
L 1656 3950 
L 538 3950 
L 538 4863 
z
" transform="scale(0.015625)"/>
        <path id="DejaVuSans-Bold-73" d="M 3272 3391 
L 3272 2541 
Q 2913 2691 2578 2766 
Q 2244 2841 1947 2841 
Q 1628 2841 1473 2761 
Q 1319 2681 1319 2516 
Q 1319 2381 1436 2309 
Q 1553 2238 1856 2203 
L 2053 2175 
Q 2913 2066 3209 1816 
Q 3506 1566 3506 1031 
Q 3506 472 3093 190 
Q 2681 -91 1863 -91 
Q 1516 -91 1145 -36 
Q 775 19 384 128 
L 384 978 
Q 719 816 1070 734 
Q 1422 653 1784 653 
Q 2113 653 2278 743 
Q 2444 834 2444 1013 
Q 2444 1163 2330 1236 
Q 2216 1309 1875 1350 
L 1678 1375 
Q 931 1469 631 1722 
Q 331 1975 331 2491 
Q 331 3047 712 3315 
Q 1094 3584 1881 3584 
Q 2191 3584 2531 3537 
Q 2872 3491 3272 3391 
z
" transform="scale(0.015625)"/>
        <path id="DejaVuSans-Bold-63" d="M 3366 3391 
L 3366 2478 
Q 3138 2634 2908 2709 
Q 2678 2784 2431 2784 
Q 1963 2784 1702 2511 
Q 1441 2238 1441 1747 
Q 1441 1256 1702 982 
Q 1963 709 2431 709 
Q 2694 709 2930 787 
Q 3166 866 3366 1019 
L 3366 103 
Q 3103 6 2833 -42 
Q 2563 -91 2291 -91 
Q 1344 -91 809 395 
Q 275 881 275 1747 
Q 275 2613 809 3098 
Q 1344 3584 2291 3584 
Q 2566 3584 2833 3536 
Q 3100 3488 3366 3391 
z
" transform="scale(0.015625)"/>
        <path id="DejaVuSans-Bold-72" d="M 3138 2547 
Q 2991 2616 2845 2648 
Q 2700 2681 2553 2681 
Q 2122 2681 1889 2404 
Q 1656 2128 1656 1613 
L 1656 0 
L 538 0 
L 538 3500 
L 1656 3500 
L 1656 2925 
Q 1872 3269 2151 3426 
Q 2431 3584 2822 3584 
Q 2878 3584 2943 3579 
Q 3009 3575 3134 3559 
L 3138 2547 
z
" transform="scale(0.015625)"/>
        <path id="DejaVuSans-Bold-6d" d="M 3781 2919 
Q 3994 3244 4286 3414 
Q 4578 3584 4928 3584 
Q 5531 3584 5847 3212 
Q 6163 2841 6163 2131 
L 6163 0 
L 5038 0 
L 5038 1825 
Q 5041 1866 5042 1909 
Q 5044 1953 5044 2034 
Q 5044 2406 4934 2573 
Q 4825 2741 4581 2741 
Q 4263 2741 4089 2478 
Q 3916 2216 3909 1719 
L 3909 0 
L 2784 0 
L 2784 1825 
Q 2784 2406 2684 2573 
Q 2584 2741 2328 2741 
Q 2006 2741 1831 2477 
Q 1656 2213 1656 1722 
L 1656 0 
L 531 0 
L 531 3500 
L 1656 3500 
L 1656 2988 
Q 1863 3284 2130 3434 
Q 2397 3584 2719 3584 
Q 3081 3584 3359 3409 
Q 3638 3234 3781 2919 
z
" transform="scale(0.015625)"/>
        <path id="DejaVuSans-Bold-6e" d="M 4056 2131 
L 4056 0 
L 2931 0 
L 2931 347 
L 2931 1631 
Q 2931 2084 2911 2256 
Q 2891 2428 2841 2509 
Q 2775 2619 2662 2680 
Q 2550 2741 2406 2741 
Q 2056 2741 1856 2470 
Q 1656 2200 1656 1722 
L 1656 0 
L 538 0 
L 538 3500 
L 1656 3500 
L 1656 2988 
Q 1909 3294 2193 3439 
Q 2478 3584 2822 3584 
Q 3428 3584 3742 3212 
Q 4056 2841 4056 2131 
z
" transform="scale(0.015625)"/>
        <path id="DejaVuSans-Bold-61" d="M 2106 1575 
Q 1756 1575 1579 1456 
Q 1403 1338 1403 1106 
Q 1403 894 1545 773 
Q 1688 653 1941 653 
Q 2256 653 2472 879 
Q 2688 1106 2688 1447 
L 2688 1575 
L 2106 1575 
z
M 3816 1997 
L 3816 0 
L 2688 0 
L 2688 519 
Q 2463 200 2181 54 
Q 1900 -91 1497 -91 
Q 953 -91 614 226 
Q 275 544 275 1050 
Q 275 1666 698 1953 
Q 1122 2241 2028 2241 
L 2688 2241 
L 2688 2328 
Q 2688 2594 2478 2717 
Q 2269 2841 1825 2841 
Q 1466 2841 1156 2769 
Q 847 2697 581 2553 
L 581 3406 
Q 941 3494 1303 3539 
Q 1666 3584 2028 3584 
Q 2975 3584 3395 3211 
Q 3816 2838 3816 1997 
z
" transform="scale(0.015625)"/>
        <path id="DejaVuSans-Bold-74" d="M 1759 4494 
L 1759 3500 
L 2913 3500 
L 2913 2700 
L 1759 2700 
L 1759 1216 
Q 1759 972 1856 886 
Q 1953 800 2241 800 
L 2816 800 
L 2816 0 
L 1856 0 
Q 1194 0 917 276 
Q 641 553 641 1216 
L 641 2700 
L 84 2700 
L 84 3500 
L 641 3500 
L 641 4494 
L 1759 4494 
z
" transform="scale(0.015625)"/>
        <path id="DejaVuSans-Bold-6f" d="M 2203 2784 
Q 1831 2784 1636 2517 
Q 1441 2250 1441 1747 
Q 1441 1244 1636 976 
Q 1831 709 2203 709 
Q 2569 709 2762 976 
Q 2956 1244 2956 1747 
Q 2956 2250 2762 2517 
Q 2569 2784 2203 2784 
z
M 2203 3584 
Q 3106 3584 3614 3096 
Q 4122 2609 4122 1747 
Q 4122 884 3614 396 
Q 3106 -91 2203 -91 
Q 1297 -91 786 396 
Q 275 884 275 1747 
Q 275 2609 786 3096 
Q 1297 3584 2203 3584 
z
" transform="scale(0.015625)"/>
       </defs>
       <use xlink:href="#DejaVuSans-Bold-44"/>
       <use xlink:href="#DejaVuSans-Bold-69" transform="translate(83.007812 0)"/>
       <use xlink:href="#DejaVuSans-Bold-73" transform="translate(117.285156 0)"/>
       <use xlink:href="#DejaVuSans-Bold-63" transform="translate(176.806641 0)"/>
       <use xlink:href="#DejaVuSans-Bold-72" transform="translate(236.083984 0)"/>
       <use xlink:href="#DejaVuSans-Bold-69" transform="translate(285.400391 0)"/>
       <use xlink:href="#DejaVuSans-Bold-6d" transform="translate(319.677734 0)"/>
       <use xlink:href="#DejaVuSans-Bold-69" transform="translate(423.876953 0)"/>
       <use xlink:href="#DejaVuSans-Bold-6e" transform="translate(458.154297 0)"/>
       <use xlink:href="#DejaVuSans-Bold-61" transform="translate(529.345703 0)"/>
       <use xlink:href="#DejaVuSans-Bold-74" transform="translate(596.826172 0)"/>
       <use xlink:href="#DejaVuSans-Bold-69" transform="translate(644.628906 0)"/>
       <use xlink:href="#DejaVuSans-Bold-6f" transform="translate(678.90625 0)"/>
       <use xlink:href="#DejaVuSans-Bold-6e" transform="translate(747.607422 0)"/>
      </g>
     </g>
    </g>
    <g id="xtick_2">
     <g id="line2d_2">
      <path d="M 351.625156 288.832089 
L 428.398782 52.547164 
" clip-path="url(#pcb4a3c9699)" style="fill: none; stroke: #808080; stroke-opacity: 0.3; stroke-width: 0.8; stroke-linecap: square"/>
     </g>
     <g id="text_2">
      <!-- Analysis -->
      <g transform="translate(408.094908 17.837812) scale(0.14 -0.14)">
       <defs>
        <path id="DejaVuSans-Bold-41" d="M 3419 850 
L 1538 850 
L 1241 0 
L 31 0 
L 1759 4666 
L 3194 4666 
L 4922 0 
L 3713 0 
L 3419 850 
z
M 1838 1716 
L 3116 1716 
L 2478 3572 
L 1838 1716 
z
" transform="scale(0.015625)"/>
        <path id="DejaVuSans-Bold-6c" d="M 538 4863 
L 1656 4863 
L 1656 0 
L 538 0 
L 538 4863 
z
" transform="scale(0.015625)"/>
        <path id="DejaVuSans-Bold-79" d="M 78 3500 
L 1197 3500 
L 2138 1125 
L 2938 3500 
L 4056 3500 
L 2584 -331 
Q 2363 -916 2067 -1148 
Q 1772 -1381 1288 -1381 
L 641 -1381 
L 641 -647 
L 991 -647 
Q 1275 -647 1404 -556 
Q 1534 -466 1606 -231 
L 1638 -134 
L 78 3500 
z
" transform="scale(0.015625)"/>
       </defs>
       <use xlink:href="#DejaVuSans-Bold-41"/>
       <use xlink:href="#DejaVuSans-Bold-6e" transform="translate(77.392578 0)"/>
       <use xlink:href="#DejaVuSans-Bold-61" transform="translate(148.583984 0)"/>
       <use xlink:href="#DejaVuSans-Bold-6c" transform="translate(216.064453 0)"/>
       <use xlink:href="#DejaVuSans-Bold-79" transform="translate(250.341797 0)"/>
       <use xlink:href="#DejaVuSans-Bold-73" transform="translate(315.527344 0)"/>
       <use xlink:href="#DejaVuSans-Bold-69" transform="translate(375.048828 0)"/>
       <use xlink:href="#DejaVuSans-Bold-73" transform="translate(409.326172 0)"/>
      </g>
     </g>
    </g>
    <g id="xtick_3">
     <g id="line2d_3">
      <path d="M 351.625156 288.832089 
L 150.629194 142.799974 
" clip-path="url(#pcb4a3c9699)" style="fill: none; stroke: #808080; stroke-opacity: 0.3; stroke-width: 0.8; stroke-linecap: square"/>
     </g>
     <g id="text_3">
      <!-- Classification -->
      <g transform="translate(65.0151 122.857796) scale(0.14 -0.14)">
       <defs>
        <path id="DejaVuSans-Bold-43" d="M 4288 256 
Q 3956 84 3597 -3 
Q 3238 -91 2847 -91 
Q 1681 -91 1000 561 
Q 319 1213 319 2328 
Q 319 3447 1000 4098 
Q 1681 4750 2847 4750 
Q 3238 4750 3597 4662 
Q 3956 4575 4288 4403 
L 4288 3438 
Q 3953 3666 3628 3772 
Q 3303 3878 2944 3878 
Q 2300 3878 1931 3465 
Q 1563 3053 1563 2328 
Q 1563 1606 1931 1193 
Q 2300 781 2944 781 
Q 3303 781 3628 887 
Q 3953 994 4288 1222 
L 4288 256 
z
" transform="scale(0.015625)"/>
        <path id="DejaVuSans-Bold-66" d="M 2841 4863 
L 2841 4128 
L 2222 4128 
Q 1984 4128 1890 4042 
Q 1797 3956 1797 3744 
L 1797 3500 
L 2753 3500 
L 2753 2700 
L 1797 2700 
L 1797 0 
L 678 0 
L 678 2700 
L 122 2700 
L 122 3500 
L 678 3500 
L 678 3744 
Q 678 4316 997 4589 
Q 1316 4863 1984 4863 
L 2841 4863 
z
" transform="scale(0.015625)"/>
       </defs>
       <use xlink:href="#DejaVuSans-Bold-43"/>
       <use xlink:href="#DejaVuSans-Bold-6c" transform="translate(73.388672 0)"/>
       <use xlink:href="#DejaVuSans-Bold-61" transform="translate(107.666016 0)"/>
       <use xlink:href="#DejaVuSans-Bold-73" transform="translate(175.146484 0)"/>
       <use xlink:href="#DejaVuSans-Bold-73" transform="translate(234.667969 0)"/>
       <use xlink:href="#DejaVuSans-Bold-69" transform="translate(294.189453 0)"/>
       <use xlink:href="#DejaVuSans-Bold-66" transform="translate(328.466797 0)"/>
       <use xlink:href="#DejaVuSans-Bold-69" transform="translate(371.972656 0)"/>
       <use xlink:href="#DejaVuSans-Bold-63" transform="translate(406.25 0)"/>
       <use xlink:href="#DejaVuSans-Bold-61" transform="translate(465.527344 0)"/>
       <use xlink:href="#DejaVuSans-Bold-74" transform="translate(533.007812 0)"/>
       <use xlink:href="#DejaVuSans-Bold-69" transform="translate(580.810547 0)"/>
       <use xlink:href="#DejaVuSans-Bold-6f" transform="translate(615.087891 0)"/>
       <use xlink:href="#DejaVuSans-Bold-6e" transform="translate(683.789062 0)"/>
      </g>
     </g>
    </g>
    <g id="xtick_4">
     <g id="line2d_4">
      <path d="M 351.625156 288.832089 
L 150.629194 434.864203 
" clip-path="url(#pcb4a3c9699)" style="fill: none; stroke: #808080; stroke-opacity: 0.3; stroke-width: 0.8; stroke-linecap: square"/>
     </g>
     <g id="text_4">
      <!-- Description -->
      <g transform="translate(72.589318 462.532631) scale(0.14 -0.14)">
       <defs>
        <path id="DejaVuSans-Bold-65" d="M 4031 1759 
L 4031 1441 
L 1416 1441 
Q 1456 1047 1700 850 
Q 1944 653 2381 653 
Q 2734 653 3104 758 
Q 3475 863 3866 1075 
L 3866 213 
Q 3469 63 3072 -14 
Q 2675 -91 2278 -91 
Q 1328 -91 801 392 
Q 275 875 275 1747 
Q 275 2603 792 3093 
Q 1309 3584 2216 3584 
Q 3041 3584 3536 3087 
Q 4031 2591 4031 1759 
z
M 2881 2131 
Q 2881 2450 2695 2645 
Q 2509 2841 2209 2841 
Q 1884 2841 1681 2658 
Q 1478 2475 1428 2131 
L 2881 2131 
z
" transform="scale(0.015625)"/>
        <path id="DejaVuSans-Bold-70" d="M 1656 506 
L 1656 -1331 
L 538 -1331 
L 538 3500 
L 1656 3500 
L 1656 2988 
Q 1888 3294 2169 3439 
Q 2450 3584 2816 3584 
Q 3463 3584 3878 3070 
Q 4294 2556 4294 1747 
Q 4294 938 3878 423 
Q 3463 -91 2816 -91 
Q 2450 -91 2169 54 
Q 1888 200 1656 506 
z
M 2400 2772 
Q 2041 2772 1848 2508 
Q 1656 2244 1656 1747 
Q 1656 1250 1848 986 
Q 2041 722 2400 722 
Q 2759 722 2948 984 
Q 3138 1247 3138 1747 
Q 3138 2247 2948 2509 
Q 2759 2772 2400 2772 
z
" transform="scale(0.015625)"/>
       </defs>
       <use xlink:href="#DejaVuSans-Bold-44"/>
       <use xlink:href="#DejaVuSans-Bold-65" transform="translate(83.007812 0)"/>
       <use xlink:href="#DejaVuSans-Bold-73" transform="translate(150.830078 0)"/>
       <use xlink:href="#DejaVuSans-Bold-63" transform="translate(210.351562 0)"/>
       <use xlink:href="#DejaVuSans-Bold-72" transform="translate(269.628906 0)"/>
       <use xlink:href="#DejaVuSans-Bold-69" transform="translate(318.945312 0)"/>
       <use xlink:href="#DejaVuSans-Bold-70" transform="translate(353.222656 0)"/>
       <use xlink:href="#DejaVuSans-Bold-74" transform="translate(424.804688 0)"/>
       <use xlink:href="#DejaVuSans-Bold-69" transform="translate(472.607422 0)"/>
       <use xlink:href="#DejaVuSans-Bold-6f" transform="translate(506.884766 0)"/>
       <use xlink:href="#DejaVuSans-Bold-6e" transform="translate(575.585938 0)"/>
      </g>
     </g>
    </g>
    <g id="xtick_5">
     <g id="line2d_5">
      <path d="M 351.625156 288.832089 
L 428.398782 525.117013 
" clip-path="url(#pcb4a3c9699)" style="fill: none; stroke: #808080; stroke-opacity: 0.3; stroke-width: 0.8; stroke-linecap: square"/>
     </g>
     <g id="text_5">
      <!-- Localization -->
      <g transform="translate(393.635533 567.497927) scale(0.14 -0.14)">
       <defs>
        <path id="DejaVuSans-Bold-4c" d="M 588 4666 
L 1791 4666 
L 1791 909 
L 3903 909 
L 3903 0 
L 588 0 
L 588 4666 
z
" transform="scale(0.015625)"/>
        <path id="DejaVuSans-Bold-7a" d="M 366 3500 
L 3419 3500 
L 3419 2719 
L 1575 800 
L 3419 800 
L 3419 0 
L 288 0 
L 288 781 
L 2131 2700 
L 366 2700 
L 366 3500 
z
" transform="scale(0.015625)"/>
       </defs>
       <use xlink:href="#DejaVuSans-Bold-4c"/>
       <use xlink:href="#DejaVuSans-Bold-6f" transform="translate(63.720703 0)"/>
       <use xlink:href="#DejaVuSans-Bold-63" transform="translate(132.421875 0)"/>
       <use xlink:href="#DejaVuSans-Bold-61" transform="translate(191.699219 0)"/>
       <use xlink:href="#DejaVuSans-Bold-6c" transform="translate(259.179688 0)"/>
       <use xlink:href="#DejaVuSans-Bold-69" transform="translate(293.457031 0)"/>
       <use xlink:href="#DejaVuSans-Bold-7a" transform="translate(327.734375 0)"/>
       <use xlink:href="#DejaVuSans-Bold-61" transform="translate(385.9375 0)"/>
       <use xlink:href="#DejaVuSans-Bold-74" transform="translate(453.417969 0)"/>
       <use xlink:href="#DejaVuSans-Bold-69" transform="translate(501.220703 0)"/>
       <use xlink:href="#DejaVuSans-Bold-6f" transform="translate(535.498047 0)"/>
       <use xlink:href="#DejaVuSans-Bold-6e" transform="translate(604.199219 0)"/>
      </g>
     </g>
    </g>
   </g>
   <g id="matplotlib.axis_2">
    <g id="ytick_1">
     <g id="line2d_6">
      <path d="M 393.032602 288.832089 
C 393.032602 283.394513 391.961518 278.00981 389.880648 272.986145 
C 387.799777 267.96248 384.749588 263.39755 380.904642 259.552603 
C 377.059695 255.707656 372.494765 252.657467 367.4711 250.576597 
C 362.447434 248.495727 357.062732 247.424643 351.625156 247.424643 
C 346.18758 247.424643 340.802878 248.495727 335.779213 250.576597 
C 330.755548 252.657467 326.190618 255.707656 322.345671 259.552603 
C 318.500724 263.39755 315.450535 267.96248 313.369665 272.986145 
C 311.288795 278.00981 310.217711 283.394513 310.217711 288.832089 
C 310.217711 294.269664 311.288795 299.654367 313.369665 304.678032 
C 315.450535 309.701697 318.500724 314.266627 322.345671 318.111574 
C 326.190618 321.956521 330.755548 325.00671 335.779213 327.08758 
C 340.802878 329.16845 346.18758 330.239534 351.625156 330.239534 
C 357.062732 330.239534 362.447434 329.16845 367.4711 327.08758 
C 372.494765 325.00671 377.059695 321.956521 380.904642 318.111574 
C 384.749588 314.266627 387.799777 309.701697 389.880648 304.678032 
C 391.961518 299.654367 393.032602 294.269664 393.032602 288.832089 
" clip-path="url(#pcb4a3c9699)" style="fill: none; stroke-dasharray: 2.96,1.28; stroke-dashoffset: 0; stroke: #808080; stroke-opacity: 0.5; stroke-width: 0.8"/>
     </g>
     <g id="text_6">
      <!-- 50 -->
      <g style="fill: #808080" transform="translate(389.880648 270.906458) scale(0.1 -0.1)">
       <defs>
        <path id="DejaVuSans-35" d="M 691 4666 
L 3169 4666 
L 3169 4134 
L 1269 4134 
L 1269 2991 
Q 1406 3038 1543 3061 
Q 1681 3084 1819 3084 
Q 2600 3084 3056 2656 
Q 3513 2228 3513 1497 
Q 3513 744 3044 326 
Q 2575 -91 1722 -91 
Q 1428 -91 1123 -41 
Q 819 9 494 109 
L 494 744 
Q 775 591 1075 516 
Q 1375 441 1709 441 
Q 2250 441 2565 725 
Q 2881 1009 2881 1497 
Q 2881 1984 2565 2268 
Q 2250 2553 1709 2553 
Q 1456 2553 1204 2497 
Q 953 2441 691 2322 
L 691 4666 
z
" transform="scale(0.015625)"/>
        <path id="DejaVuSans-30" d="M 2034 4250 
Q 1547 4250 1301 3770 
Q 1056 3291 1056 2328 
Q 1056 1369 1301 889 
Q 1547 409 2034 409 
Q 2525 409 2770 889 
Q 3016 1369 3016 2328 
Q 3016 3291 2770 3770 
Q 2525 4250 2034 4250 
z
M 2034 4750 
Q 2819 4750 3233 4129 
Q 3647 3509 3647 2328 
Q 3647 1150 3233 529 
Q 2819 -91 2034 -91 
Q 1250 -91 836 529 
Q 422 1150 422 2328 
Q 422 3509 836 4129 
Q 1250 4750 2034 4750 
z
" transform="scale(0.015625)"/>
       </defs>
       <use xlink:href="#DejaVuSans-35"/>
       <use xlink:href="#DejaVuSans-30" transform="translate(63.623047 0)"/>
      </g>
     </g>
    </g>
    <g id="ytick_2">
     <g id="line2d_7">
      <path d="M 434.440047 288.832089 
C 434.440047 277.956937 432.297879 267.187532 428.136139 257.140202 
C 423.974398 247.092872 417.874021 237.963011 410.184127 230.273118 
C 402.494234 222.583224 393.364373 216.482846 383.317043 212.321106 
C 373.269713 208.159366 362.500308 206.017198 351.625156 206.017198 
C 340.750004 206.017198 329.9806 208.159366 319.93327 212.321106 
C 309.885939 216.482846 300.756079 222.583224 293.066185 230.273118 
C 285.376292 237.963011 279.275914 247.092872 275.114174 257.140202 
C 270.952433 267.187532 268.810265 277.956937 268.810265 288.832089 
C 268.810265 299.70724 270.952433 310.476645 275.114174 320.523975 
C 279.275914 330.571305 285.376292 339.701166 293.066185 347.391059 
C 300.756079 355.080953 309.885939 361.181331 319.93327 365.343071 
C 329.9806 369.504812 340.750004 371.646979 351.625156 371.646979 
C 362.500308 371.646979 373.269713 369.504812 383.317043 365.343071 
C 393.364373 361.181331 402.494234 355.080953 410.184127 347.391059 
C 417.874021 339.701166 423.974398 330.571305 428.136139 320.523975 
C 432.297879 310.476645 434.440047 299.70724 434.440047 288.832089 
" clip-path="url(#pcb4a3c9699)" style="fill: none; stroke-dasharray: 2.96,1.28; stroke-dashoffset: 0; stroke: #808080; stroke-opacity: 0.5; stroke-width: 0.8"/>
     </g>
     <g id="text_7">
      <!-- 60 -->
      <g style="fill: #808080" transform="translate(428.136139 255.060514) scale(0.1 -0.1)">
       <defs>
        <path id="DejaVuSans-36" d="M 2113 2584 
Q 1688 2584 1439 2293 
Q 1191 2003 1191 1497 
Q 1191 994 1439 701 
Q 1688 409 2113 409 
Q 2538 409 2786 701 
Q 3034 994 3034 1497 
Q 3034 2003 2786 2293 
Q 2538 2584 2113 2584 
z
M 3366 4563 
L 3366 3988 
Q 3128 4100 2886 4159 
Q 2644 4219 2406 4219 
Q 1781 4219 1451 3797 
Q 1122 3375 1075 2522 
Q 1259 2794 1537 2939 
Q 1816 3084 2150 3084 
Q 2853 3084 3261 2657 
Q 3669 2231 3669 1497 
Q 3669 778 3244 343 
Q 2819 -91 2113 -91 
Q 1303 -91 875 529 
Q 447 1150 447 2328 
Q 447 3434 972 4092 
Q 1497 4750 2381 4750 
Q 2619 4750 2861 4703 
Q 3103 4656 3366 4563 
z
" transform="scale(0.015625)"/>
       </defs>
       <use xlink:href="#DejaVuSans-36"/>
       <use xlink:href="#DejaVuSans-30" transform="translate(63.623047 0)"/>
      </g>
     </g>
    </g>
    <g id="ytick_3">
     <g id="line2d_8">
      <path d="M 475.847492 288.832089 
C 475.847492 272.519361 472.634241 256.365254 466.39163 241.294259 
C 460.14902 226.223263 450.998453 212.528473 439.463613 200.993632 
C 427.928772 189.458792 414.233982 180.308225 399.162986 174.065615 
C 384.091991 167.823004 367.937884 164.609752 351.625156 164.609752 
C 335.312429 164.609752 319.158322 167.823004 304.087326 174.065615 
C 289.016331 180.308225 275.32154 189.458792 263.7867 200.993632 
C 252.25186 212.528473 243.101293 226.223263 236.858682 241.294259 
C 230.616072 256.365254 227.40282 272.519361 227.40282 288.832089 
C 227.40282 305.144816 230.616072 321.298923 236.858682 336.369919 
C 243.101293 351.440914 252.25186 365.135704 263.7867 376.670545 
C 275.32154 388.205385 289.016331 397.355952 304.087326 403.598562 
C 319.158322 409.841173 335.312429 413.054425 351.625156 413.054425 
C 367.937884 413.054425 384.091991 409.841173 399.162986 403.598562 
C 414.233982 397.355952 427.928772 388.205385 439.463613 376.670545 
C 450.998453 365.135704 460.14902 351.440914 466.39163 336.369919 
C 472.634241 321.298923 475.847492 305.144816 475.847492 288.832089 
" clip-path="url(#pcb4a3c9699)" style="fill: none; stroke-dasharray: 2.96,1.28; stroke-dashoffset: 0; stroke: #808080; stroke-opacity: 0.5; stroke-width: 0.8"/>
     </g>
     <g id="text_8">
      <!-- 70 -->
      <g style="fill: #808080" transform="translate(466.39163 239.214571) scale(0.1 -0.1)">
       <defs>
        <path id="DejaVuSans-37" d="M 525 4666 
L 3525 4666 
L 3525 4397 
L 1831 0 
L 1172 0 
L 2766 4134 
L 525 4134 
L 525 4666 
z
" transform="scale(0.015625)"/>
       </defs>
       <use xlink:href="#DejaVuSans-37"/>
       <use xlink:href="#DejaVuSans-30" transform="translate(63.623047 0)"/>
      </g>
     </g>
    </g>
    <g id="ytick_4">
     <g id="line2d_9">
      <path d="M 517.254938 288.832089 
C 517.254938 267.081785 512.970602 245.542976 504.647121 225.448315 
C 496.323641 205.353655 484.122885 187.093934 468.743098 171.714147 
C 453.363311 156.33436 435.10359 144.133604 415.00893 135.810123 
C 394.914269 127.486642 373.37546 123.202307 351.625156 123.202307 
C 329.874853 123.202307 308.336043 127.486642 288.241383 135.810123 
C 268.146723 144.133604 249.887002 156.33436 234.507215 171.714147 
C 219.127427 187.093934 206.926672 205.353655 198.603191 225.448315 
C 190.27971 245.542976 185.995375 267.081785 185.995375 288.832089 
C 185.995375 310.582392 190.27971 332.121201 198.603191 352.215862 
C 206.926672 372.310522 219.127427 390.570243 234.507215 405.95003 
C 249.887002 421.329817 268.146723 433.530573 288.241383 441.854054 
C 308.336043 450.177535 329.874853 454.46187 351.625156 454.46187 
C 373.37546 454.46187 394.914269 450.177535 415.00893 441.854054 
C 435.10359 433.530573 453.363311 421.329817 468.743098 405.95003 
C 484.122885 390.570243 496.323641 372.310522 504.647121 352.215862 
C 512.970602 332.121201 517.254938 310.582392 517.254938 288.832089 
" clip-path="url(#pcb4a3c9699)" style="fill: none; stroke-dasharray: 2.96,1.28; stroke-dashoffset: 0; stroke: #808080; stroke-opacity: 0.5; stroke-width: 0.8"/>
     </g>
     <g id="text_9">
      <!-- 80 -->
      <g style="fill: #808080" transform="translate(504.647121 223.368628) scale(0.1 -0.1)">
       <defs>
        <path id="DejaVuSans-38" d="M 2034 2216 
Q 1584 2216 1326 1975 
Q 1069 1734 1069 1313 
Q 1069 891 1326 650 
Q 1584 409 2034 409 
Q 2484 409 2743 651 
Q 3003 894 3003 1313 
Q 3003 1734 2745 1975 
Q 2488 2216 2034 2216 
z
M 1403 2484 
Q 997 2584 770 2862 
Q 544 3141 544 3541 
Q 544 4100 942 4425 
Q 1341 4750 2034 4750 
Q 2731 4750 3128 4425 
Q 3525 4100 3525 3541 
Q 3525 3141 3298 2862 
Q 3072 2584 2669 2484 
Q 3125 2378 3379 2068 
Q 3634 1759 3634 1313 
Q 3634 634 3220 271 
Q 2806 -91 2034 -91 
Q 1263 -91 848 271 
Q 434 634 434 1313 
Q 434 1759 690 2068 
Q 947 2378 1403 2484 
z
M 1172 3481 
Q 1172 3119 1398 2916 
Q 1625 2713 2034 2713 
Q 2441 2713 2670 2916 
Q 2900 3119 2900 3481 
Q 2900 3844 2670 4047 
Q 2441 4250 2034 4250 
Q 1625 4250 1398 4047 
Q 1172 3844 1172 3481 
z
" transform="scale(0.015625)"/>
       </defs>
       <use xlink:href="#DejaVuSans-38"/>
       <use xlink:href="#DejaVuSans-30" transform="translate(63.623047 0)"/>
      </g>
     </g>
    </g>
    <g id="ytick_5">
     <g id="line2d_10">
      <path d="M 558.662383 288.832089 
C 558.662383 261.644209 553.306964 234.720697 542.902613 209.602372 
C 532.498262 184.484046 517.247317 161.659395 498.022583 142.434661 
C 478.797849 123.209927 455.973198 107.958983 430.854873 97.554632 
C 405.736547 87.150281 378.813036 81.794862 351.625156 81.794862 
C 324.437277 81.794862 297.513765 87.150281 272.39544 97.554632 
C 247.277114 107.958983 224.452463 123.209927 205.227729 142.434661 
C 186.002995 161.659395 170.752051 184.484046 160.3477 209.602372 
C 149.943349 234.720697 144.587929 261.644209 144.587929 288.832089 
C 144.587929 316.019968 149.943349 342.94348 160.3477 368.061805 
C 170.752051 393.180131 186.002995 416.004782 205.227729 435.229516 
C 224.452463 454.45425 247.277114 469.705194 272.39544 480.109545 
C 297.513765 490.513896 324.437277 495.869316 351.625156 495.869316 
C 378.813036 495.869316 405.736547 490.513896 430.854873 480.109545 
C 455.973198 469.705194 478.797849 454.45425 498.022583 435.229516 
C 517.247317 416.004782 532.498262 393.180131 542.902613 368.061805 
C 553.306964 342.94348 558.662383 316.019968 558.662383 288.832089 
" clip-path="url(#pcb4a3c9699)" style="fill: none; stroke-dasharray: 2.96,1.28; stroke-dashoffset: 0; stroke: #808080; stroke-opacity: 0.5; stroke-width: 0.8"/>
     </g>
     <g id="text_10">
      <!-- 90 -->
      <g style="fill: #808080" transform="translate(542.902613 207.522684) scale(0.1 -0.1)">
       <defs>
        <path id="DejaVuSans-39" d="M 703 97 
L 703 672 
Q 941 559 1184 500 
Q 1428 441 1663 441 
Q 2288 441 2617 861 
Q 2947 1281 2994 2138 
Q 2813 1869 2534 1725 
Q 2256 1581 1919 1581 
Q 1219 1581 811 2004 
Q 403 2428 403 3163 
Q 403 3881 828 4315 
Q 1253 4750 1959 4750 
Q 2769 4750 3195 4129 
Q 3622 3509 3622 2328 
Q 3622 1225 3098 567 
Q 2575 -91 1691 -91 
Q 1453 -91 1209 -44 
Q 966 3 703 97 
z
M 1959 2075 
Q 2384 2075 2632 2365 
Q 2881 2656 2881 3163 
Q 2881 3666 2632 3958 
Q 2384 4250 1959 4250 
Q 1534 4250 1286 3958 
Q 1038 3666 1038 3163 
Q 1038 2656 1286 2365 
Q 1534 2075 1959 2075 
z
" transform="scale(0.015625)"/>
       </defs>
       <use xlink:href="#DejaVuSans-39"/>
       <use xlink:href="#DejaVuSans-30" transform="translate(63.623047 0)"/>
      </g>
     </g>
    </g>
    <g id="ytick_6">
     <g id="line2d_11">
      <path d="M 600.069829 288.832089 
C 600.069829 256.206633 593.643325 223.898419 581.158104 193.756429 
C 568.672883 163.614438 550.37175 136.224857 527.302069 113.155176 
C 504.232388 90.085495 476.842807 71.784362 446.700816 59.299141 
C 416.558826 46.813919 384.250612 40.387416 351.625156 40.387416 
C 318.999701 40.387416 286.691487 46.813919 256.549496 59.299141 
C 226.407506 71.784362 199.017924 90.085495 175.948244 113.155176 
C 152.878563 136.224857 134.57743 163.614438 122.092208 193.756429 
C 109.606987 223.898419 103.180484 256.206633 103.180484 288.832089 
C 103.180484 321.457544 109.606987 353.765758 122.092208 383.907749 
C 134.57743 414.049739 152.878563 441.43932 175.948244 464.509001 
C 199.017924 487.578682 226.407506 505.879815 256.549496 518.365036 
C 286.691487 530.850258 318.999701 537.276761 351.625156 537.276761 
C 384.250612 537.276761 416.558826 530.850258 446.700816 518.365036 
C 476.842807 505.879815 504.232388 487.578682 527.302069 464.509001 
C 550.37175 441.43932 568.672883 414.049739 581.158104 383.907749 
C 593.643325 353.765758 600.069829 321.457544 600.069829 288.832089 
" clip-path="url(#pcb4a3c9699)" style="fill: none; stroke-dasharray: 2.96,1.28; stroke-dashoffset: 0; stroke: #808080; stroke-opacity: 0.5; stroke-width: 0.8"/>
     </g>
    </g>
   </g>
   <g id="line2d_12">
    <path d="M 478.331939 288.832089 
L 420.081639 78.144697 
L 226.00268 197.562017 
L 204.228117 395.922306 
L 406.262387 456.988193 
L 478.331939 288.832089 
" clip-path="url(#pcb4a3c9699)" style="fill: none; stroke: #1f77b4; stroke-width: 2; stroke-linecap: square"/>
   </g>
   <g id="line2d_13">
    <path d="M 540.857182 288.832089 
L 422.896672 69.480917 
L 197.193259 176.630747 
L 184.463514 410.28213 
L 414.195661 481.404302 
L 540.857182 288.832089 
" clip-path="url(#pcb4a3c9699)" style="fill: none; stroke: #ff7f0e; stroke-width: 2; stroke-linecap: square"/>
   </g>
   <g id="line2d_14">
    <path d="M 468.808227 288.832089 
L 417.522519 86.020862 
L 289.651401 243.80552 
L 228.347633 378.398452 
L 393.21087 416.819756 
L 468.808227 288.832089 
" clip-path="url(#pcb4a3c9699)" style="fill: none; stroke: #2ca02c; stroke-width: 2; stroke-linecap: square"/>
   </g>
   <g id="line2d_15">
    <path d="M 494.066768 288.832089 
L 417.522519 86.020862 
L 291.661361 245.265841 
L 223.657727 381.805868 
L 387.06898 397.916962 
L 494.066768 288.832089 
" clip-path="url(#pcb4a3c9699)" style="fill: none; stroke: #d62728; stroke-width: 2; stroke-linecap: square"/>
   </g>
   <g id="line2d_16">
    <path d="M 477.917865 288.832089 
L 416.242958 89.958944 
L 269.551805 229.202308 
L 293.001334 331.424789 
L 401.528013 442.41729 
L 477.917865 288.832089 
" clip-path="url(#pcb4a3c9699)" style="fill: none; stroke: #9467bd; stroke-width: 2; stroke-linecap: square"/>
   </g>
   <g id="line2d_17">
    <path d="M 499.863811 288.832089 
L 418.546167 82.870396 
L 260.171993 222.387476 
L 210.257996 391.541342 
L 399.224804 435.328742 
L 499.863811 288.832089 
" clip-path="url(#pcb4a3c9699)" style="fill: none; stroke: #8c564b; stroke-width: 2; stroke-linecap: square"/>
   </g>
   <g id="line2d_18">
    <path d="M 462.59711 288.832089 
L 419.825727 78.932314 
L 269.551805 229.202308 
L 212.267956 390.081021 
L 397.561376 430.209235 
L 462.59711 288.832089 
" clip-path="url(#pcb4a3c9699)" style="fill: none; stroke: #e377c2; stroke-width: 2; stroke-linecap: square"/>
   </g>
   <g id="line2d_19">
    <path d="M 530.091246 288.832089 
L 420.081639 78.144697 
L 237.057458 205.593783 
L 201.548171 397.869401 
L 411.252672 472.346713 
L 530.091246 288.832089 
" clip-path="url(#pcb4a3c9699)" style="fill: none; stroke: #7f7f7f; stroke-width: 2; stroke-linecap: square"/>
   </g>
   <g id="line2d_20">
    <path d="M 585.163148 288.832089 
L 418.802079 82.082779 
L 203.223138 181.011711 
L 211.262976 390.811182 
L 406.902167 458.957234 
L 585.163148 288.832089 
" clip-path="url(#pcb4a3c9699)" style="fill: none; stroke: #bcbd22; stroke-width: 2; stroke-linecap: square"/>
   </g>
   <g id="line2d_21">
    <path d="M 585.577223 288.832089 
L 422.64076 70.268533 
L 191.833366 172.736558 
L 194.513313 402.980525 
L 414.707486 482.979535 
L 585.577223 288.832089 
" clip-path="url(#pcb4a3c9699)" style="fill: none; stroke: #17becf; stroke-width: 2; stroke-linecap: square"/>
   </g>
   <g id="legend_1">
    <g id="line2d_22">
     <path d="M 12.8 614.597758 
L 26.8 614.597758 
L 40.8 614.597758 
" style="fill: none; stroke: #1f77b4; stroke-width: 2; stroke-linecap: square"/>
    </g>
    <g id="text_11">
     <!-- GPT-5-mini -->
     <g transform="translate(52 619.497758) scale(0.14 -0.14)">
      <defs>
       <path id="DejaVuSans-47" d="M 3809 666 
L 3809 1919 
L 2778 1919 
L 2778 2438 
L 4434 2438 
L 4434 434 
Q 4069 175 3628 42 
Q 3188 -91 2688 -91 
Q 1594 -91 976 548 
Q 359 1188 359 2328 
Q 359 3472 976 4111 
Q 1594 4750 2688 4750 
Q 3144 4750 3555 4637 
Q 3966 4525 4313 4306 
L 4313 3634 
Q 3963 3931 3569 4081 
Q 3175 4231 2741 4231 
Q 1884 4231 1454 3753 
Q 1025 3275 1025 2328 
Q 1025 1384 1454 906 
Q 1884 428 2741 428 
Q 3075 428 3337 486 
Q 3600 544 3809 666 
z
" transform="scale(0.015625)"/>
       <path id="DejaVuSans-50" d="M 1259 4147 
L 1259 2394 
L 2053 2394 
Q 2494 2394 2734 2622 
Q 2975 2850 2975 3272 
Q 2975 3691 2734 3919 
Q 2494 4147 2053 4147 
L 1259 4147 
z
M 628 4666 
L 2053 4666 
Q 2838 4666 3239 4311 
Q 3641 3956 3641 3272 
Q 3641 2581 3239 2228 
Q 2838 1875 2053 1875 
L 1259 1875 
L 1259 0 
L 628 0 
L 628 4666 
z
" transform="scale(0.015625)"/>
       <path id="DejaVuSans-54" d="M -19 4666 
L 3928 4666 
L 3928 4134 
L 2272 4134 
L 2272 0 
L 1638 0 
L 1638 4134 
L -19 4134 
L -19 4666 
z
" transform="scale(0.015625)"/>
       <path id="DejaVuSans-2d" d="M 313 2009 
L 1997 2009 
L 1997 1497 
L 313 1497 
L 313 2009 
z
" transform="scale(0.015625)"/>
       <path id="DejaVuSans-6d" d="M 3328 2828 
Q 3544 3216 3844 3400 
Q 4144 3584 4550 3584 
Q 5097 3584 5394 3201 
Q 5691 2819 5691 2113 
L 5691 0 
L 5113 0 
L 5113 2094 
Q 5113 2597 4934 2840 
Q 4756 3084 4391 3084 
Q 3944 3084 3684 2787 
Q 3425 2491 3425 1978 
L 3425 0 
L 2847 0 
L 2847 2094 
Q 2847 2600 2669 2842 
Q 2491 3084 2119 3084 
Q 1678 3084 1418 2786 
Q 1159 2488 1159 1978 
L 1159 0 
L 581 0 
L 581 3500 
L 1159 3500 
L 1159 2956 
Q 1356 3278 1631 3431 
Q 1906 3584 2284 3584 
Q 2666 3584 2933 3390 
Q 3200 3197 3328 2828 
z
" transform="scale(0.015625)"/>
       <path id="DejaVuSans-69" d="M 603 3500 
L 1178 3500 
L 1178 0 
L 603 0 
L 603 3500 
z
M 603 4863 
L 1178 4863 
L 1178 4134 
L 603 4134 
L 603 4863 
z
" transform="scale(0.015625)"/>
       <path id="DejaVuSans-6e" d="M 3513 2113 
L 3513 0 
L 2938 0 
L 2938 2094 
Q 2938 2591 2744 2837 
Q 2550 3084 2163 3084 
Q 1697 3084 1428 2787 
Q 1159 2491 1159 1978 
L 1159 0 
L 581 0 
L 581 3500 
L 1159 3500 
L 1159 2956 
Q 1366 3272 1645 3428 
Q 1925 3584 2291 3584 
Q 2894 3584 3203 3211 
Q 3513 2838 3513 2113 
z
" transform="scale(0.015625)"/>
      </defs>
      <use xlink:href="#DejaVuSans-47"/>
      <use xlink:href="#DejaVuSans-50" transform="translate(77.490234 0)"/>
      <use xlink:href="#DejaVuSans-54" transform="translate(137.792969 0)"/>
      <use xlink:href="#DejaVuSans-2d" transform="translate(189.751953 0)"/>
      <use xlink:href="#DejaVuSans-35" transform="translate(225.835938 0)"/>
      <use xlink:href="#DejaVuSans-2d" transform="translate(289.458984 0)"/>
      <use xlink:href="#DejaVuSans-6d" transform="translate(325.542969 0)"/>
      <use xlink:href="#DejaVuSans-69" transform="translate(422.955078 0)"/>
      <use xlink:href="#DejaVuSans-6e" transform="translate(450.738281 0)"/>
      <use xlink:href="#DejaVuSans-69" transform="translate(514.117188 0)"/>
     </g>
    </g>
    <g id="line2d_23">
     <path d="M 12.8 635.147133 
L 26.8 635.147133 
L 40.8 635.147133 
" style="fill: none; stroke: #ff7f0e; stroke-width: 2; stroke-linecap: square"/>
    </g>
    <g id="text_12">
     <!-- Gemini-3-flash -->
     <g transform="translate(52 640.047133) scale(0.14 -0.14)">
      <defs>
       <path id="DejaVuSans-65" d="M 3597 1894 
L 3597 1613 
L 953 1613 
Q 991 1019 1311 708 
Q 1631 397 2203 397 
Q 2534 397 2845 478 
Q 3156 559 3463 722 
L 3463 178 
Q 3153 47 2828 -22 
Q 2503 -91 2169 -91 
Q 1331 -91 842 396 
Q 353 884 353 1716 
Q 353 2575 817 3079 
Q 1281 3584 2069 3584 
Q 2775 3584 3186 3129 
Q 3597 2675 3597 1894 
z
M 3022 2063 
Q 3016 2534 2758 2815 
Q 2500 3097 2075 3097 
Q 1594 3097 1305 2825 
Q 1016 2553 972 2059 
L 3022 2063 
z
" transform="scale(0.015625)"/>
       <path id="DejaVuSans-33" d="M 2597 2516 
Q 3050 2419 3304 2112 
Q 3559 1806 3559 1356 
Q 3559 666 3084 287 
Q 2609 -91 1734 -91 
Q 1441 -91 1130 -33 
Q 819 25 488 141 
L 488 750 
Q 750 597 1062 519 
Q 1375 441 1716 441 
Q 2309 441 2620 675 
Q 2931 909 2931 1356 
Q 2931 1769 2642 2001 
Q 2353 2234 1838 2234 
L 1294 2234 
L 1294 2753 
L 1863 2753 
Q 2328 2753 2575 2939 
Q 2822 3125 2822 3475 
Q 2822 3834 2567 4026 
Q 2313 4219 1838 4219 
Q 1578 4219 1281 4162 
Q 984 4106 628 3988 
L 628 4550 
Q 988 4650 1302 4700 
Q 1616 4750 1894 4750 
Q 2613 4750 3031 4423 
Q 3450 4097 3450 3541 
Q 3450 3153 3228 2886 
Q 3006 2619 2597 2516 
z
" transform="scale(0.015625)"/>
       <path id="DejaVuSans-66" d="M 2375 4863 
L 2375 4384 
L 1825 4384 
Q 1516 4384 1395 4259 
Q 1275 4134 1275 3809 
L 1275 3500 
L 2222 3500 
L 2222 3053 
L 1275 3053 
L 1275 0 
L 697 0 
L 697 3053 
L 147 3053 
L 147 3500 
L 697 3500 
L 697 3744 
Q 697 4328 969 4595 
Q 1241 4863 1831 4863 
L 2375 4863 
z
" transform="scale(0.015625)"/>
       <path id="DejaVuSans-6c" d="M 603 4863 
L 1178 4863 
L 1178 0 
L 603 0 
L 603 4863 
z
" transform="scale(0.015625)"/>
       <path id="DejaVuSans-61" d="M 2194 1759 
Q 1497 1759 1228 1600 
Q 959 1441 959 1056 
Q 959 750 1161 570 
Q 1363 391 1709 391 
Q 2188 391 2477 730 
Q 2766 1069 2766 1631 
L 2766 1759 
L 2194 1759 
z
M 3341 1997 
L 3341 0 
L 2766 0 
L 2766 531 
Q 2569 213 2275 61 
Q 1981 -91 1556 -91 
Q 1019 -91 701 211 
Q 384 513 384 1019 
Q 384 1609 779 1909 
Q 1175 2209 1959 2209 
L 2766 2209 
L 2766 2266 
Q 2766 2663 2505 2880 
Q 2244 3097 1772 3097 
Q 1472 3097 1187 3025 
Q 903 2953 641 2809 
L 641 3341 
Q 956 3463 1253 3523 
Q 1550 3584 1831 3584 
Q 2591 3584 2966 3190 
Q 3341 2797 3341 1997 
z
" transform="scale(0.015625)"/>
       <path id="DejaVuSans-73" d="M 2834 3397 
L 2834 2853 
Q 2591 2978 2328 3040 
Q 2066 3103 1784 3103 
Q 1356 3103 1142 2972 
Q 928 2841 928 2578 
Q 928 2378 1081 2264 
Q 1234 2150 1697 2047 
L 1894 2003 
Q 2506 1872 2764 1633 
Q 3022 1394 3022 966 
Q 3022 478 2636 193 
Q 2250 -91 1575 -91 
Q 1294 -91 989 -36 
Q 684 19 347 128 
L 347 722 
Q 666 556 975 473 
Q 1284 391 1588 391 
Q 1994 391 2212 530 
Q 2431 669 2431 922 
Q 2431 1156 2273 1281 
Q 2116 1406 1581 1522 
L 1381 1569 
Q 847 1681 609 1914 
Q 372 2147 372 2553 
Q 372 3047 722 3315 
Q 1072 3584 1716 3584 
Q 2034 3584 2315 3537 
Q 2597 3491 2834 3397 
z
" transform="scale(0.015625)"/>
       <path id="DejaVuSans-68" d="M 3513 2113 
L 3513 0 
L 2938 0 
L 2938 2094 
Q 2938 2591 2744 2837 
Q 2550 3084 2163 3084 
Q 1697 3084 1428 2787 
Q 1159 2491 1159 1978 
L 1159 0 
L 581 0 
L 581 4863 
L 1159 4863 
L 1159 2956 
Q 1366 3272 1645 3428 
Q 1925 3584 2291 3584 
Q 2894 3584 3203 3211 
Q 3513 2838 3513 2113 
z
" transform="scale(0.015625)"/>
      </defs>
      <use xlink:href="#DejaVuSans-47"/>
      <use xlink:href="#DejaVuSans-65" transform="translate(77.490234 0)"/>
      <use xlink:href="#DejaVuSans-6d" transform="translate(139.013672 0)"/>
      <use xlink:href="#DejaVuSans-69" transform="translate(236.425781 0)"/>
      <use xlink:href="#DejaVuSans-6e" transform="translate(264.208984 0)"/>
      <use xlink:href="#DejaVuSans-69" transform="translate(327.587891 0)"/>
      <use xlink:href="#DejaVuSans-2d" transform="translate(355.371094 0)"/>
      <use xlink:href="#DejaVuSans-33" transform="translate(391.455078 0)"/>
      <use xlink:href="#DejaVuSans-2d" transform="translate(455.078125 0)"/>
      <use xlink:href="#DejaVuSans-66" transform="translate(491.162109 0)"/>
      <use xlink:href="#DejaVuSans-6c" transform="translate(526.367188 0)"/>
      <use xlink:href="#DejaVuSans-61" transform="translate(554.150391 0)"/>
      <use xlink:href="#DejaVuSans-73" transform="translate(615.429688 0)"/>
      <use xlink:href="#DejaVuSans-68" transform="translate(667.529297 0)"/>
     </g>
    </g>
    <g id="line2d_24">
     <path d="M 12.8 664.990758 
L 26.8 664.990758 
L 40.8 664.990758 
" style="fill: none; stroke: #2ca02c; stroke-width: 2; stroke-linecap: square"/>
    </g>
    <g id="text_13">
     <!-- Qwen2.5-VL -->
     <g transform="translate(52 660.596508) scale(0.14 -0.14)">
      <defs>
       <path id="DejaVuSans-51" d="M 2522 4238 
Q 1834 4238 1429 3725 
Q 1025 3213 1025 2328 
Q 1025 1447 1429 934 
Q 1834 422 2522 422 
Q 3209 422 3611 934 
Q 4013 1447 4013 2328 
Q 4013 3213 3611 3725 
Q 3209 4238 2522 4238 
z
M 3406 84 
L 4238 -825 
L 3475 -825 
L 2784 -78 
Q 2681 -84 2626 -87 
Q 2572 -91 2522 -91 
Q 1538 -91 948 567 
Q 359 1225 359 2328 
Q 359 3434 948 4092 
Q 1538 4750 2522 4750 
Q 3503 4750 4090 4092 
Q 4678 3434 4678 2328 
Q 4678 1516 4351 937 
Q 4025 359 3406 84 
z
" transform="scale(0.015625)"/>
       <path id="DejaVuSans-77" d="M 269 3500 
L 844 3500 
L 1563 769 
L 2278 3500 
L 2956 3500 
L 3675 769 
L 4391 3500 
L 4966 3500 
L 4050 0 
L 3372 0 
L 2619 2869 
L 1863 0 
L 1184 0 
L 269 3500 
z
" transform="scale(0.015625)"/>
       <path id="DejaVuSans-32" d="M 1228 531 
L 3431 531 
L 3431 0 
L 469 0 
L 469 531 
Q 828 903 1448 1529 
Q 2069 2156 2228 2338 
Q 2531 2678 2651 2914 
Q 2772 3150 2772 3378 
Q 2772 3750 2511 3984 
Q 2250 4219 1831 4219 
Q 1534 4219 1204 4116 
Q 875 4013 500 3803 
L 500 4441 
Q 881 4594 1212 4672 
Q 1544 4750 1819 4750 
Q 2544 4750 2975 4387 
Q 3406 4025 3406 3419 
Q 3406 3131 3298 2873 
Q 3191 2616 2906 2266 
Q 2828 2175 2409 1742 
Q 1991 1309 1228 531 
z
" transform="scale(0.015625)"/>
       <path id="DejaVuSans-2e" d="M 684 794 
L 1344 794 
L 1344 0 
L 684 0 
L 684 794 
z
" transform="scale(0.015625)"/>
       <path id="DejaVuSans-56" d="M 1831 0 
L 50 4666 
L 709 4666 
L 2188 738 
L 3669 4666 
L 4325 4666 
L 2547 0 
L 1831 0 
z
" transform="scale(0.015625)"/>
       <path id="DejaVuSans-4c" d="M 628 4666 
L 1259 4666 
L 1259 531 
L 3531 531 
L 3531 0 
L 628 0 
L 628 4666 
z
" transform="scale(0.015625)"/>
      </defs>
      <use xlink:href="#DejaVuSans-51"/>
      <use xlink:href="#DejaVuSans-77" transform="translate(78.710938 0)"/>
      <use xlink:href="#DejaVuSans-65" transform="translate(160.498047 0)"/>
      <use xlink:href="#DejaVuSans-6e" transform="translate(222.021484 0)"/>
      <use xlink:href="#DejaVuSans-32" transform="translate(285.400391 0)"/>
      <use xlink:href="#DejaVuSans-2e" transform="translate(349.023438 0)"/>
      <use xlink:href="#DejaVuSans-35" transform="translate(380.810547 0)"/>
      <use xlink:href="#DejaVuSans-2d" transform="translate(444.433594 0)"/>
      <use xlink:href="#DejaVuSans-56" transform="translate(474.642578 0)"/>
      <use xlink:href="#DejaVuSans-4c" transform="translate(543.050781 0)"/>
     </g>
     <!-- Instruct 3B -->
     <g transform="translate(52 676.273445) scale(0.14 -0.14)">
      <defs>
       <path id="DejaVuSans-49" d="M 628 4666 
L 1259 4666 
L 1259 0 
L 628 0 
L 628 4666 
z
" transform="scale(0.015625)"/>
       <path id="DejaVuSans-74" d="M 1172 4494 
L 1172 3500 
L 2356 3500 
L 2356 3053 
L 1172 3053 
L 1172 1153 
Q 1172 725 1289 603 
Q 1406 481 1766 481 
L 2356 481 
L 2356 0 
L 1766 0 
Q 1100 0 847 248 
Q 594 497 594 1153 
L 594 3053 
L 172 3053 
L 172 3500 
L 594 3500 
L 594 4494 
L 1172 4494 
z
" transform="scale(0.015625)"/>
       <path id="DejaVuSans-72" d="M 2631 2963 
Q 2534 3019 2420 3045 
Q 2306 3072 2169 3072 
Q 1681 3072 1420 2755 
Q 1159 2438 1159 1844 
L 1159 0 
L 581 0 
L 581 3500 
L 1159 3500 
L 1159 2956 
Q 1341 3275 1631 3429 
Q 1922 3584 2338 3584 
Q 2397 3584 2469 3576 
Q 2541 3569 2628 3553 
L 2631 2963 
z
" transform="scale(0.015625)"/>
       <path id="DejaVuSans-75" d="M 544 1381 
L 544 3500 
L 1119 3500 
L 1119 1403 
Q 1119 906 1312 657 
Q 1506 409 1894 409 
Q 2359 409 2629 706 
Q 2900 1003 2900 1516 
L 2900 3500 
L 3475 3500 
L 3475 0 
L 2900 0 
L 2900 538 
Q 2691 219 2414 64 
Q 2138 -91 1772 -91 
Q 1169 -91 856 284 
Q 544 659 544 1381 
z
M 1991 3584 
L 1991 3584 
z
" transform="scale(0.015625)"/>
       <path id="DejaVuSans-63" d="M 3122 3366 
L 3122 2828 
Q 2878 2963 2633 3030 
Q 2388 3097 2138 3097 
Q 1578 3097 1268 2742 
Q 959 2388 959 1747 
Q 959 1106 1268 751 
Q 1578 397 2138 397 
Q 2388 397 2633 464 
Q 2878 531 3122 666 
L 3122 134 
Q 2881 22 2623 -34 
Q 2366 -91 2075 -91 
Q 1284 -91 818 406 
Q 353 903 353 1747 
Q 353 2603 823 3093 
Q 1294 3584 2113 3584 
Q 2378 3584 2631 3529 
Q 2884 3475 3122 3366 
z
" transform="scale(0.015625)"/>
       <path id="DejaVuSans-20" transform="scale(0.015625)"/>
       <path id="DejaVuSans-42" d="M 1259 2228 
L 1259 519 
L 2272 519 
Q 2781 519 3026 730 
Q 3272 941 3272 1375 
Q 3272 1813 3026 2020 
Q 2781 2228 2272 2228 
L 1259 2228 
z
M 1259 4147 
L 1259 2741 
L 2194 2741 
Q 2656 2741 2882 2914 
Q 3109 3088 3109 3444 
Q 3109 3797 2882 3972 
Q 2656 4147 2194 4147 
L 1259 4147 
z
M 628 4666 
L 2241 4666 
Q 2963 4666 3353 4366 
Q 3744 4066 3744 3513 
Q 3744 3084 3544 2831 
Q 3344 2578 2956 2516 
Q 3422 2416 3680 2098 
Q 3938 1781 3938 1306 
Q 3938 681 3513 340 
Q 3088 0 2303 0 
L 628 0 
L 628 4666 
z
" transform="scale(0.015625)"/>
      </defs>
      <use xlink:href="#DejaVuSans-49"/>
      <use xlink:href="#DejaVuSans-6e" transform="translate(29.492188 0)"/>
      <use xlink:href="#DejaVuSans-73" transform="translate(92.871094 0)"/>
      <use xlink:href="#DejaVuSans-74" transform="translate(144.970703 0)"/>
      <use xlink:href="#DejaVuSans-72" transform="translate(184.179688 0)"/>
      <use xlink:href="#DejaVuSans-75" transform="translate(225.292969 0)"/>
      <use xlink:href="#DejaVuSans-63" transform="translate(288.671875 0)"/>
      <use xlink:href="#DejaVuSans-74" transform="translate(343.652344 0)"/>
      <use xlink:href="#DejaVuSans-20" transform="translate(382.861328 0)"/>
      <use xlink:href="#DejaVuSans-33" transform="translate(414.648438 0)"/>
      <use xlink:href="#DejaVuSans-42" transform="translate(478.271484 0)"/>
     </g>
    </g>
    <g id="line2d_25">
     <path d="M 182.3225 614.597758 
L 196.3225 614.597758 
L 210.3225 614.597758 
" style="fill: none; stroke: #d62728; stroke-width: 2; stroke-linecap: square"/>
    </g>
    <g id="text_14">
     <!-- InternVL-3.5 4B -->
     <g transform="translate(221.5225 619.497758) scale(0.14 -0.14)">
      <defs>
       <path id="DejaVuSans-34" d="M 2419 4116 
L 825 1625 
L 2419 1625 
L 2419 4116 
z
M 2253 4666 
L 3047 4666 
L 3047 1625 
L 3713 1625 
L 3713 1100 
L 3047 1100 
L 3047 0 
L 2419 0 
L 2419 1100 
L 313 1100 
L 313 1709 
L 2253 4666 
z
" transform="scale(0.015625)"/>
      </defs>
      <use xlink:href="#DejaVuSans-49"/>
      <use xlink:href="#DejaVuSans-6e" transform="translate(29.492188 0)"/>
      <use xlink:href="#DejaVuSans-74" transform="translate(92.871094 0)"/>
      <use xlink:href="#DejaVuSans-65" transform="translate(132.080078 0)"/>
      <use xlink:href="#DejaVuSans-72" transform="translate(193.603516 0)"/>
      <use xlink:href="#DejaVuSans-6e" transform="translate(232.966797 0)"/>
      <use xlink:href="#DejaVuSans-56" transform="translate(296.345703 0)"/>
      <use xlink:href="#DejaVuSans-4c" transform="translate(364.753906 0)"/>
      <use xlink:href="#DejaVuSans-2d" transform="translate(418.716797 0)"/>
      <use xlink:href="#DejaVuSans-33" transform="translate(454.800781 0)"/>
      <use xlink:href="#DejaVuSans-2e" transform="translate(518.423828 0)"/>
      <use xlink:href="#DejaVuSans-35" transform="translate(550.210938 0)"/>
      <use xlink:href="#DejaVuSans-20" transform="translate(613.833984 0)"/>
      <use xlink:href="#DejaVuSans-34" transform="translate(645.621094 0)"/>
      <use xlink:href="#DejaVuSans-42" transform="translate(709.244141 0)"/>
     </g>
    </g>
    <g id="line2d_26">
     <path d="M 182.3225 644.441383 
L 196.3225 644.441383 
L 210.3225 644.441383 
" style="fill: none; stroke: #9467bd; stroke-width: 2; stroke-linecap: square"/>
    </g>
    <g id="text_15">
     <!-- Qwen3-VL -->
     <g transform="translate(221.5225 640.047133) scale(0.14 -0.14)">
      <use xlink:href="#DejaVuSans-51"/>
      <use xlink:href="#DejaVuSans-77" transform="translate(78.710938 0)"/>
      <use xlink:href="#DejaVuSans-65" transform="translate(160.498047 0)"/>
      <use xlink:href="#DejaVuSans-6e" transform="translate(222.021484 0)"/>
      <use xlink:href="#DejaVuSans-33" transform="translate(285.400391 0)"/>
      <use xlink:href="#DejaVuSans-2d" transform="translate(349.023438 0)"/>
      <use xlink:href="#DejaVuSans-56" transform="translate(379.232422 0)"/>
      <use xlink:href="#DejaVuSans-4c" transform="translate(447.640625 0)"/>
     </g>
     <!-- Instruct 4B -->
     <g transform="translate(221.5225 655.72407) scale(0.14 -0.14)">
      <use xlink:href="#DejaVuSans-49"/>
      <use xlink:href="#DejaVuSans-6e" transform="translate(29.492188 0)"/>
      <use xlink:href="#DejaVuSans-73" transform="translate(92.871094 0)"/>
      <use xlink:href="#DejaVuSans-74" transform="translate(144.970703 0)"/>
      <use xlink:href="#DejaVuSans-72" transform="translate(184.179688 0)"/>
      <use xlink:href="#DejaVuSans-75" transform="translate(225.292969 0)"/>
      <use xlink:href="#DejaVuSans-63" transform="translate(288.671875 0)"/>
      <use xlink:href="#DejaVuSans-74" transform="translate(343.652344 0)"/>
      <use xlink:href="#DejaVuSans-20" transform="translate(382.861328 0)"/>
      <use xlink:href="#DejaVuSans-34" transform="translate(414.648438 0)"/>
      <use xlink:href="#DejaVuSans-42" transform="translate(478.271484 0)"/>
     </g>
    </g>
    <g id="line2d_27">
     <path d="M 182.3225 680.667695 
L 196.3225 680.667695 
L 210.3225 680.667695 
" style="fill: none; stroke: #8c564b; stroke-width: 2; stroke-linecap: square"/>
    </g>
    <g id="text_16">
     <!-- Qwen2.5-VL -->
     <g transform="translate(221.5225 676.273445) scale(0.14 -0.14)">
      <use xlink:href="#DejaVuSans-51"/>
      <use xlink:href="#DejaVuSans-77" transform="translate(78.710938 0)"/>
      <use xlink:href="#DejaVuSans-65" transform="translate(160.498047 0)"/>
      <use xlink:href="#DejaVuSans-6e" transform="translate(222.021484 0)"/>
      <use xlink:href="#DejaVuSans-32" transform="translate(285.400391 0)"/>
      <use xlink:href="#DejaVuSans-2e" transform="translate(349.023438 0)"/>
      <use xlink:href="#DejaVuSans-35" transform="translate(380.810547 0)"/>
      <use xlink:href="#DejaVuSans-2d" transform="translate(444.433594 0)"/>
      <use xlink:href="#DejaVuSans-56" transform="translate(474.642578 0)"/>
      <use xlink:href="#DejaVuSans-4c" transform="translate(543.050781 0)"/>
     </g>
     <!-- Instruct 7B -->
     <g transform="translate(221.5225 691.950383) scale(0.14 -0.14)">
      <use xlink:href="#DejaVuSans-49"/>
      <use xlink:href="#DejaVuSans-6e" transform="translate(29.492188 0)"/>
      <use xlink:href="#DejaVuSans-73" transform="translate(92.871094 0)"/>
      <use xlink:href="#DejaVuSans-74" transform="translate(144.970703 0)"/>
      <use xlink:href="#DejaVuSans-72" transform="translate(184.179688 0)"/>
      <use xlink:href="#DejaVuSans-75" transform="translate(225.292969 0)"/>
      <use xlink:href="#DejaVuSans-63" transform="translate(288.671875 0)"/>
      <use xlink:href="#DejaVuSans-74" transform="translate(343.652344 0)"/>
      <use xlink:href="#DejaVuSans-20" transform="translate(382.861328 0)"/>
      <use xlink:href="#DejaVuSans-37" transform="translate(414.648438 0)"/>
      <use xlink:href="#DejaVuSans-42" transform="translate(478.271484 0)"/>
     </g>
    </g>
    <g id="line2d_28">
     <path d="M 358.420625 614.597758 
L 372.420625 614.597758 
L 386.420625 614.597758 
" style="fill: none; stroke: #e377c2; stroke-width: 2; stroke-linecap: square"/>
    </g>
    <g id="text_17">
     <!-- InternVL-3.5 8B -->
     <g transform="translate(397.620625 619.497758) scale(0.14 -0.14)">
      <use xlink:href="#DejaVuSans-49"/>
      <use xlink:href="#DejaVuSans-6e" transform="translate(29.492188 0)"/>
      <use xlink:href="#DejaVuSans-74" transform="translate(92.871094 0)"/>
      <use xlink:href="#DejaVuSans-65" transform="translate(132.080078 0)"/>
      <use xlink:href="#DejaVuSans-72" transform="translate(193.603516 0)"/>
      <use xlink:href="#DejaVuSans-6e" transform="translate(232.966797 0)"/>
      <use xlink:href="#DejaVuSans-56" transform="translate(296.345703 0)"/>
      <use xlink:href="#DejaVuSans-4c" transform="translate(364.753906 0)"/>
      <use xlink:href="#DejaVuSans-2d" transform="translate(418.716797 0)"/>
      <use xlink:href="#DejaVuSans-33" transform="translate(454.800781 0)"/>
      <use xlink:href="#DejaVuSans-2e" transform="translate(518.423828 0)"/>
      <use xlink:href="#DejaVuSans-35" transform="translate(550.210938 0)"/>
      <use xlink:href="#DejaVuSans-20" transform="translate(613.833984 0)"/>
      <use xlink:href="#DejaVuSans-38" transform="translate(645.621094 0)"/>
      <use xlink:href="#DejaVuSans-42" transform="translate(709.244141 0)"/>
     </g>
    </g>
    <g id="line2d_29">
     <path d="M 358.420625 644.441383 
L 372.420625 644.441383 
L 386.420625 644.441383 
" style="fill: none; stroke: #7f7f7f; stroke-width: 2; stroke-linecap: square"/>
    </g>
    <g id="text_18">
     <!-- Qwen3-VL -->
     <g transform="translate(397.620625 640.047133) scale(0.14 -0.14)">
      <use xlink:href="#DejaVuSans-51"/>
      <use xlink:href="#DejaVuSans-77" transform="translate(78.710938 0)"/>
      <use xlink:href="#DejaVuSans-65" transform="translate(160.498047 0)"/>
      <use xlink:href="#DejaVuSans-6e" transform="translate(222.021484 0)"/>
      <use xlink:href="#DejaVuSans-33" transform="translate(285.400391 0)"/>
      <use xlink:href="#DejaVuSans-2d" transform="translate(349.023438 0)"/>
      <use xlink:href="#DejaVuSans-56" transform="translate(379.232422 0)"/>
      <use xlink:href="#DejaVuSans-4c" transform="translate(447.640625 0)"/>
     </g>
     <!-- Instruct 8B -->
     <g transform="translate(397.620625 655.72407) scale(0.14 -0.14)">
      <use xlink:href="#DejaVuSans-49"/>
      <use xlink:href="#DejaVuSans-6e" transform="translate(29.492188 0)"/>
      <use xlink:href="#DejaVuSans-73" transform="translate(92.871094 0)"/>
      <use xlink:href="#DejaVuSans-74" transform="translate(144.970703 0)"/>
      <use xlink:href="#DejaVuSans-72" transform="translate(184.179688 0)"/>
      <use xlink:href="#DejaVuSans-75" transform="translate(225.292969 0)"/>
      <use xlink:href="#DejaVuSans-63" transform="translate(288.671875 0)"/>
      <use xlink:href="#DejaVuSans-74" transform="translate(343.652344 0)"/>
      <use xlink:href="#DejaVuSans-20" transform="translate(382.861328 0)"/>
      <use xlink:href="#DejaVuSans-38" transform="translate(414.648438 0)"/>
      <use xlink:href="#DejaVuSans-42" transform="translate(478.271484 0)"/>
     </g>
    </g>
    <g id="line2d_30">
     <path d="M 534.51875 614.597758 
L 548.51875 614.597758 
L 562.51875 614.597758 
" style="fill: none; stroke: #bcbd22; stroke-width: 2; stroke-linecap: square"/>
    </g>
    <g id="text_19">
     <!-- GLLS(Qwen3-VL) -->
     <g transform="translate(573.71875 610.203508) scale(0.14 -0.14)">
      <defs>
       <path id="DejaVuSans-53" d="M 3425 4513 
L 3425 3897 
Q 3066 4069 2747 4153 
Q 2428 4238 2131 4238 
Q 1616 4238 1336 4038 
Q 1056 3838 1056 3469 
Q 1056 3159 1242 3001 
Q 1428 2844 1947 2747 
L 2328 2669 
Q 3034 2534 3370 2195 
Q 3706 1856 3706 1288 
Q 3706 609 3251 259 
Q 2797 -91 1919 -91 
Q 1588 -91 1214 -16 
Q 841 59 441 206 
L 441 856 
Q 825 641 1194 531 
Q 1563 422 1919 422 
Q 2459 422 2753 634 
Q 3047 847 3047 1241 
Q 3047 1584 2836 1778 
Q 2625 1972 2144 2069 
L 1759 2144 
Q 1053 2284 737 2584 
Q 422 2884 422 3419 
Q 422 4038 858 4394 
Q 1294 4750 2059 4750 
Q 2388 4750 2728 4690 
Q 3069 4631 3425 4513 
z
" transform="scale(0.015625)"/>
       <path id="DejaVuSans-28" d="M 1984 4856 
Q 1566 4138 1362 3434 
Q 1159 2731 1159 2009 
Q 1159 1288 1364 580 
Q 1569 -128 1984 -844 
L 1484 -844 
Q 1016 -109 783 600 
Q 550 1309 550 2009 
Q 550 2706 781 3412 
Q 1013 4119 1484 4856 
L 1984 4856 
z
" transform="scale(0.015625)"/>
       <path id="DejaVuSans-29" d="M 513 4856 
L 1013 4856 
Q 1481 4119 1714 3412 
Q 1947 2706 1947 2009 
Q 1947 1309 1714 600 
Q 1481 -109 1013 -844 
L 513 -844 
Q 928 -128 1133 580 
Q 1338 1288 1338 2009 
Q 1338 2731 1133 3434 
Q 928 4138 513 4856 
z
" transform="scale(0.015625)"/>
      </defs>
      <use xlink:href="#DejaVuSans-47"/>
      <use xlink:href="#DejaVuSans-4c" transform="translate(77.490234 0)"/>
      <use xlink:href="#DejaVuSans-4c" transform="translate(133.203125 0)"/>
      <use xlink:href="#DejaVuSans-53" transform="translate(188.916016 0)"/>
      <use xlink:href="#DejaVuSans-28" transform="translate(252.392578 0)"/>
      <use xlink:href="#DejaVuSans-51" transform="translate(291.40625 0)"/>
      <use xlink:href="#DejaVuSans-77" transform="translate(370.117188 0)"/>
      <use xlink:href="#DejaVuSans-65" transform="translate(451.904297 0)"/>
      <use xlink:href="#DejaVuSans-6e" transform="translate(513.427734 0)"/>
      <use xlink:href="#DejaVuSans-33" transform="translate(576.806641 0)"/>
      <use xlink:href="#DejaVuSans-2d" transform="translate(640.429688 0)"/>
      <use xlink:href="#DejaVuSans-56" transform="translate(670.638672 0)"/>
      <use xlink:href="#DejaVuSans-4c" transform="translate(739.046875 0)"/>
      <use xlink:href="#DejaVuSans-29" transform="translate(794.759766 0)"/>
     </g>
     <!-- 4B -->
     <g transform="translate(573.71875 625.880445) scale(0.14 -0.14)">
      <use xlink:href="#DejaVuSans-34"/>
      <use xlink:href="#DejaVuSans-42" transform="translate(63.623047 0)"/>
     </g>
    </g>
    <g id="line2d_31">
     <path d="M 534.51875 650.82407 
L 548.51875 650.82407 
L 562.51875 650.82407 
" style="fill: none; stroke: #17becf; stroke-width: 2; stroke-linecap: square"/>
    </g>
    <g id="text_20">
     <!-- GLLS(Qwen3-VL) -->
     <g transform="translate(573.71875 646.42982) scale(0.14 -0.14)">
      <use xlink:href="#DejaVuSans-47"/>
      <use xlink:href="#DejaVuSans-4c" transform="translate(77.490234 0)"/>
      <use xlink:href="#DejaVuSans-4c" transform="translate(133.203125 0)"/>
      <use xlink:href="#DejaVuSans-53" transform="translate(188.916016 0)"/>
      <use xlink:href="#DejaVuSans-28" transform="translate(252.392578 0)"/>
      <use xlink:href="#DejaVuSans-51" transform="translate(291.40625 0)"/>
      <use xlink:href="#DejaVuSans-77" transform="translate(370.117188 0)"/>
      <use xlink:href="#DejaVuSans-65" transform="translate(451.904297 0)"/>
      <use xlink:href="#DejaVuSans-6e" transform="translate(513.427734 0)"/>
      <use xlink:href="#DejaVuSans-33" transform="translate(576.806641 0)"/>
      <use xlink:href="#DejaVuSans-2d" transform="translate(640.429688 0)"/>
      <use xlink:href="#DejaVuSans-56" transform="translate(670.638672 0)"/>
      <use xlink:href="#DejaVuSans-4c" transform="translate(739.046875 0)"/>
      <use xlink:href="#DejaVuSans-29" transform="translate(794.759766 0)"/>
     </g>
     <!-- 8B -->
     <g transform="translate(573.71875 662.106758) scale(0.14 -0.14)">
      <use xlink:href="#DejaVuSans-38"/>
      <use xlink:href="#DejaVuSans-42" transform="translate(63.623047 0)"/>
     </g>
    </g>
   </g>
  </g>
 </g>
 <defs>
  <clipPath id="pcb4a3c9699">
   <path d="M 600.069829 288.832089 
C 600.069829 256.206633 593.643325 223.898419 581.158104 193.756429 
C 568.672883 163.614438 550.37175 136.224857 527.302069 113.155176 
C 504.232388 90.085495 476.842807 71.784362 446.700816 59.299141 
C 416.558826 46.813919 384.250612 40.387416 351.625156 40.387416 
C 318.999701 40.387416 286.691487 46.813919 256.549496 59.299141 
C 226.407506 71.784362 199.017924 90.085495 175.948244 113.155176 
C 152.878563 136.224857 134.57743 163.614438 122.092208 193.756429 
C 109.606987 223.898419 103.180484 256.206633 103.180484 288.832089 
C 103.180484 321.457544 109.606987 353.765758 122.092208 383.907749 
C 134.57743 414.049739 152.878563 441.43932 175.948244 464.509001 
C 199.017924 487.578682 226.407506 505.879815 256.549496 518.365036 
C 286.691487 530.850258 318.999701 537.276761 351.625156 537.276761 
C 384.250612 537.276761 416.558826 530.850258 446.700816 518.365036 
C 476.842807 505.879815 504.232388 487.578682 527.302069 464.509001 
C 550.37175 441.43932 568.672883 414.049739 581.158104 383.907749 
C 593.643325 353.765758 600.069829 321.457544 600.069829 288.832089 
M 351.625156 288.832089 
C 351.625156 288.832089 351.625156 288.832089 351.625156 288.832089 
C 351.625156 288.832089 351.625156 288.832089 351.625156 288.832089 
C 351.625156 288.832089 351.625156 288.832089 351.625156 288.832089 
C 351.625156 288.832089 351.625156 288.832089 351.625156 288.832089 
C 351.625156 288.832089 351.625156 288.832089 351.625156 288.832089 
C 351.625156 288.832089 351.625156 288.832089 351.625156 288.832089 
C 351.625156 288.832089 351.625156 288.832089 351.625156 288.832089 
C 351.625156 288.832089 351.625156 288.832089 351.625156 288.832089 
C 351.625156 288.832089 351.625156 288.832089 351.625156 288.832089 
C 351.625156 288.832089 351.625156 288.832089 351.625156 288.832089 
C 351.625156 288.832089 351.625156 288.832089 351.625156 288.832089 
C 351.625156 288.832089 351.625156 288.832089 351.625156 288.832089 
C 351.625156 288.832089 351.625156 288.832089 351.625156 288.832089 
C 351.625156 288.832089 351.625156 288.832089 351.625156 288.832089 
C 351.625156 288.832089 351.625156 288.832089 351.625156 288.832089 
C 351.625156 288.832089 351.625156 288.832089 351.625156 288.832089 
z
"/>
  </clipPath>
 </defs>
</svg>
